#!OML:ASF X:\für Bonn\!DataBase\2005_08_10_Bjorn_Final\c3d\bjorn.ASF
:FULLY-SPECIFIED
:DEGREES
124
root 0.667735 15.6931 3.45559 -177.4 0.582533 -177.825
lowerback 13.9885 0.219362 5.54117
upperback 8.12199 2.18985 -1.0565
thorax 0.964445 1.84319 -4.50088
lowerneck -25.132 -3.39787 0.141081
upperneck 9.5472 -4.91867 1.01205
head 6.94759 -2.32416 -0.324402
rclavicle -2.16178e-014 8.05078e-015
rhumerus 74.7704 -1.33306 -62.5518
rradius 13.6198
rwrist 30.6583
rhand -11.3164 10.3894
rfingers 7.12502
rthumb 14.7157 -19.0683
lclavicle -2.16178e-014 8.05078e-015
lhumerus 82.3361 -9.99914 54.5251
lradius 11.8568
lwrist -34.497
lhand -11.2385 -5.64981
lfingers 7.12502
lthumb 14.7907 23.8024
rfemur -47.4103 -9.91894 16.8369
rtibia 87.907
rfoot -29.149 18.5294
rtoes -24.2766
lfemur -47.8446 4.6455 -18.1933
ltibia 91.2665
lfoot -26.0131 -4.87804
ltoes -27.6902
125
root 0.6669 15.9023 3.42138 -177.186 0.500069 -177.815
lowerback 13.253 0.296846 5.53093
upperback 7.99493 2.18836 -1.04269
thorax 1.2217 1.8202 -4.45405
lowerneck -24.8249 -3.45953 0.177272
upperneck 9.79436 -5.00268 1.06164
head 6.98372 -2.34794 -0.321664
rclavicle 1.2424e-014 -3.23025e-015
rhumerus 74.627 -1.26509 -62.6513
rradius 13.4801
rwrist 30.5823
rhand -11.4554 10.091
rfingers 7.12502
rthumb 14.5818 -19.3764
lclavicle 1.2424e-014 -3.23025e-015
lhumerus 82.2269 -10.0324 54.66
lradius 11.849
lwrist -34.4158
lhand -11.1371 -5.69107
lfingers 7.12502
lthumb 14.8884 23.7539
rfemur -46.0471 -9.78949 16.9507
rtibia 85.4372
rfoot -28.9054 18.344
rtoes -23.182
lfemur -46.4435 4.4206 -18.2515
ltibia 88.7143
lfoot -26.0031 -4.74475
ltoes -26.0661
126
root 0.665538 16.1151 3.38601 -176.951 0.448179 -177.821
lowerback 12.508 0.388048 5.48745
upperback 7.84275 2.19724 -1.00497
thorax 1.45825 1.79727 -4.36527
lowerneck -24.4576 -3.5268 0.143203
upperneck 10.0506 -5.06905 1.09779
head 7.01449 -2.36743 -0.309099
rclavicle 1.63749e-014 -8.54774e-015
rhumerus 74.4238 -1.17501 -62.8937
rradius 13.4397
rwrist 30.6309
rhand -11.5653 9.82873
rfingers 7.12502
rthumb 14.4759 -19.6463
lclavicle 1.63749e-014 -8.54774e-015
lhumerus 82.035 -10.0846 54.9966
lradius 11.8449
lwrist -34.3147
lhand -11.0792 -5.6721
lfingers 7.12502
lthumb 14.9442 23.7688
rfemur -44.6805 -9.67749 17.057
rtibia 82.9024
rfoot -28.6272 18.1431
rtoes -22.1306
lfemur -45.0488 4.26711 -18.3315
ltibia 86.0968
lfoot -26.0078 -4.64402
ltoes -24.3859
127
root 0.664265 16.3264 3.35067 -176.726 0.377176 -177.846
lowerback 11.7913 0.471175 5.44636
upperback 7.6867 2.20078 -0.984541
thorax 1.67785 1.77263 -4.29715
lowerneck -24.0592 -3.6029 0.0696993
upperneck 10.2675 -5.14936 1.20713
head 7.03027 -2.39015 -0.267032
rclavicle 4.96962e-017 -5.31749e-015
rhumerus 74.175 -1.13655 -63.3991
rradius 13.469
rwrist 30.9683
rhand -11.575 9.62902
rfingers 7.12502
rthumb 14.4665 -19.8467
lclavicle 4.96962e-017 -5.31749e-015
lhumerus 81.8638 -10.1794 55.06
lradius 11.8735
lwrist -33.8301
lhand -11.1605 -5.61517
lfingers 7.12502
lthumb 14.8659 23.8315
rfemur -43.2822 -9.59869 17.1367
rtibia 80.3175
rfoot -28.3565 17.9366
rtoes -20.9571
lfemur -43.6518 4.09825 -18.4293
ltibia 83.4386
lfoot -25.9841 -4.52556
ltoes -22.6235
128
root 0.663251 16.5337 3.31506 -176.518 0.315588 -177.869
lowerback 11.0912 0.556228 5.41305
upperback 7.53693 2.21318 -0.975135
thorax 1.89902 1.7548 -4.24655
lowerneck -23.7286 -3.68318 0.0166011
upperneck 10.5846 -5.2423 1.30053
head 7.08867 -2.41777 -0.237358
rclavicle 3.76945e-014 -2.75814e-014
rhumerus 73.9419 -1.09056 -63.7658
rradius 13.4502
rwrist 31.1255
rhand -11.5952 9.43302
rfingers 7.12502
rthumb 14.447 -20.0441
lclavicle 3.76945e-014 -2.75814e-014
lhumerus 81.682 -10.2855 55.2344
lradius 11.8933
lwrist -33.4393
lhand -11.2306 -5.59133
lfingers 7.12502
lthumb 14.7983 23.8603
rfemur -41.8675 -9.56473 17.2248
rtibia 77.7024
rfoot -28.0763 17.7262
rtoes -19.7248
lfemur -42.2183 3.97904 -18.5202
ltibia 80.7359
lfoot -25.9425 -4.42706
ltoes -21.0285
129
root 0.66253 16.7372 3.27938 -176.292 0.23503 -177.894
lowerback 10.4598 0.632593 5.36023
upperback 7.32637 2.21032 -0.931677
thorax 2.01614 1.72015 -4.15286
lowerneck -23.402 -3.77116 -0.119582
upperneck 10.952 -5.32093 1.38414
head 7.166 -2.44262 -0.196693
rclavicle 1.2424e-015 -7.50412e-015
rhumerus 73.6673 -0.984982 -64.1336
rradius 13.4254
rwrist 31.295
rhand -11.4879 9.28398
rfingers 7.12502
rthumb 14.5505 -20.1857
lclavicle 1.2424e-015 -7.50412e-015
lhumerus 81.4302 -10.4136 55.3358
lradius 11.9027
lwrist -32.9107
lhand -11.3591 -5.55129
lfingers 7.12502
lthumb 14.6745 23.9094
rfemur -40.4663 -9.55918 17.3116
rtibia 75.0668
rfoot -27.8041 17.5025
rtoes -18.5333
lfemur -40.8078 3.84918 -18.6092
ltibia 78.0029
lfoot -25.8526 -4.29638
ltoes -19.4562
130
root 0.662142 16.9353 3.24309 -176.066 0.175284 -177.935
lowerback 9.81929 0.723396 5.32238
upperback 7.11437 2.23037 -0.931658
thorax 2.14376 1.69977 -4.11468
lowerneck -23.1034 -3.85817 -0.23434
upperneck 11.3813 -5.41932 1.52217
head 7.26961 -2.47052 -0.145277
rclavicle -6.88292e-015 4.77083e-015
rhumerus 73.3676 -0.931657 -64.5898
rradius 13.3709
rwrist 31.5137
rhand -11.3238 9.16189
rfingers 7.12502
rthumb 14.7085 -20.2963
lclavicle -6.88292e-015 4.77083e-015
lhumerus 81.1757 -10.5987 55.5429
lradius 11.8967
lwrist -32.6401
lhand -11.5096 -5.51068
lfingers 7.12502
lthumb 14.5295 23.9605
rfemur -39.075 -9.55981 17.38
rtibia 72.425
rfoot -27.4791 17.2584
rtoes -17.5188
lfemur -39.3896 3.76558 -18.7095
ltibia 75.2449
lfoot -25.7248 -4.2435
ltoes -17.757
131
root 0.662043 17.128 3.20665 -175.848 0.113295 -177.959
lowerback 9.19093 0.795255 5.28758
upperback 6.8991 2.22863 -0.913373
thorax 2.2596 1.66859 -4.05826
lowerneck -22.8166 -3.93499 -0.355989
upperneck 11.8199 -5.50084 1.62477
head 7.37716 -2.49523 -0.102607
rclavicle -8.4732e-015 -1.09829e-014
rhumerus 73.051 -0.842695 -65.1809
rradius 13.3527
rwrist 31.8424
rhand -11.0573 9.06084
rfingers 7.12502
rthumb 14.9653 -20.3785
lclavicle -8.4732e-015 -1.09829e-014
lhumerus 80.7441 -10.7223 56.1108
lradius 12.0161
lwrist -32.84
lhand -11.5692 -5.48505
lfingers 7.12502
lthumb 14.4721 23.9903
rfemur -37.6705 -9.58455 17.4654
rtibia 69.7691
rfoot -27.0873 17.0489
rtoes -16.3165
lfemur -37.9682 3.70056 -18.7789
ltibia 72.4721
lfoot -25.5442 -4.2247
ltoes -16.1375
132
root 0.662412 17.314 3.17106 -175.651 0.0359899 -178.001
lowerback 8.59564 0.865371 5.26721
upperback 6.68492 2.23238 -0.935352
thorax 2.36301 1.64314 -4.05376
lowerneck -22.5392 -4.01542 -0.448125
upperneck 12.2714 -5.60931 1.76904
head 7.49148 -2.52854 -0.054674
rclavicle 9.01985e-015 8.34896e-015
rhumerus 72.6631 -0.824932 -65.9466
rradius 13.3857
rwrist 32.3069
rhand -10.7919 9.02143
rfingers 7.12502
rthumb 15.2209 -20.3987
lclavicle 9.01985e-015 8.34896e-015
lhumerus 80.1861 -10.8587 57.0464
lradius 12.2543
lwrist -33.612
lhand -11.4745 -5.52115
lfingers 7.12502
lthumb 14.5634 23.9476
rfemur -36.2644 -9.65085 17.5366
rtibia 67.1205
rfoot -26.7063 16.7877
rtoes -15.1676
lfemur -36.5351 3.65849 -18.8641
ltibia 69.6943
lfoot -25.3336 -4.09519
ltoes -15.185
133
root 0.66366 17.4952 3.13523 -175.441 -0.0234824 -178.04
lowerback 7.97026 0.936331 5.22487
upperback 6.4788 2.23686 -0.943777
thorax 2.49114 1.61874 -4.02152
lowerneck -22.248 -4.08544 -0.554983
upperneck 12.7137 -5.70108 1.89633
head 7.60032 -2.55783 -0.00750628
rclavicle 5.39203e-015 6.06293e-015
rhumerus 72.2882 -0.828733 -66.8515
rradius 13.4183
rwrist 32.9932
rhand -10.4921 9.03774
rfingers 7.12502
rthumb 15.5097 -20.3602
lclavicle 5.39203e-015 6.06293e-015
lhumerus 79.7647 -10.9831 57.5786
lradius 12.362
lwrist -34.0798
lhand -11.3862 -5.58715
lfingers 7.12502
lthumb 14.6485 23.8755
rfemur -34.8798 -9.68118 17.6041
rtibia 64.4762
rfoot -26.2997 16.5628
rtoes -13.9309
lfemur -35.1127 3.63201 -18.9387
ltibia 66.913
lfoot -25.0358 -3.99405
ltoes -14.2999
